<mxfile host="app.diagrams.net" modified="2024-05-28T07:58:28.664Z" agent="Mozilla/5.0 (Windows NT 10.0; Win64; x64) AppleWebKit/537.36 (KHTML, like Gecko) Chrome/125.0.0.0 Safari/537.36" etag="i_Tx_dZeW95i55flch1c" version="24.4.9" type="github">
  <diagram name="Page-1" id="b3bLt9QmsCSEi7zat9Xe">
    <mxGraphModel dx="836" dy="912" grid="0" gridSize="10" guides="1" tooltips="1" connect="1" arrows="1" fold="1" page="0" pageScale="1" pageWidth="1100" pageHeight="850" math="0" shadow="0">
      <root>
        <mxCell id="0" />
        <mxCell id="1" parent="0" />
        <mxCell id="QtXWayGIyKTpw7mKhyBs-3" value="" style="edgeStyle=none;curved=1;rounded=0;orthogonalLoop=1;jettySize=auto;html=1;fontSize=12;startSize=8;endSize=8;" edge="1" parent="1" source="QtXWayGIyKTpw7mKhyBs-1" target="QtXWayGIyKTpw7mKhyBs-2">
          <mxGeometry relative="1" as="geometry" />
        </mxCell>
        <mxCell id="QtXWayGIyKTpw7mKhyBs-15" value="" style="edgeStyle=none;curved=1;rounded=0;orthogonalLoop=1;jettySize=auto;html=1;fontSize=12;startSize=8;endSize=8;" edge="1" parent="1" source="QtXWayGIyKTpw7mKhyBs-1" target="QtXWayGIyKTpw7mKhyBs-13">
          <mxGeometry relative="1" as="geometry" />
        </mxCell>
        <mxCell id="QtXWayGIyKTpw7mKhyBs-16" value="" style="edgeStyle=none;curved=1;rounded=0;orthogonalLoop=1;jettySize=auto;html=1;fontSize=12;startSize=8;endSize=8;" edge="1" parent="1" source="QtXWayGIyKTpw7mKhyBs-1" target="QtXWayGIyKTpw7mKhyBs-13">
          <mxGeometry relative="1" as="geometry" />
        </mxCell>
        <mxCell id="QtXWayGIyKTpw7mKhyBs-17" value="" style="edgeStyle=none;curved=1;rounded=0;orthogonalLoop=1;jettySize=auto;html=1;fontSize=12;startSize=8;endSize=8;" edge="1" parent="1" source="QtXWayGIyKTpw7mKhyBs-1" target="QtXWayGIyKTpw7mKhyBs-10">
          <mxGeometry relative="1" as="geometry" />
        </mxCell>
        <mxCell id="QtXWayGIyKTpw7mKhyBs-18" value="" style="edgeStyle=none;curved=1;rounded=0;orthogonalLoop=1;jettySize=auto;html=1;fontSize=12;startSize=8;endSize=8;" edge="1" parent="1" source="QtXWayGIyKTpw7mKhyBs-1" target="QtXWayGIyKTpw7mKhyBs-10">
          <mxGeometry relative="1" as="geometry" />
        </mxCell>
        <mxCell id="QtXWayGIyKTpw7mKhyBs-19" value="" style="edgeStyle=none;curved=1;rounded=0;orthogonalLoop=1;jettySize=auto;html=1;fontSize=12;startSize=8;endSize=8;" edge="1" parent="1" source="QtXWayGIyKTpw7mKhyBs-1" target="QtXWayGIyKTpw7mKhyBs-10">
          <mxGeometry relative="1" as="geometry" />
        </mxCell>
        <mxCell id="QtXWayGIyKTpw7mKhyBs-22" style="edgeStyle=none;curved=1;rounded=0;orthogonalLoop=1;jettySize=auto;html=1;entryX=0;entryY=0.5;entryDx=0;entryDy=0;fontSize=12;startSize=8;endSize=8;" edge="1" parent="1" source="QtXWayGIyKTpw7mKhyBs-1" target="QtXWayGIyKTpw7mKhyBs-8">
          <mxGeometry relative="1" as="geometry" />
        </mxCell>
        <mxCell id="QtXWayGIyKTpw7mKhyBs-23" value="" style="edgeStyle=none;curved=1;rounded=0;orthogonalLoop=1;jettySize=auto;html=1;fontSize=12;startSize=8;endSize=8;" edge="1" parent="1" source="QtXWayGIyKTpw7mKhyBs-1" target="QtXWayGIyKTpw7mKhyBs-10">
          <mxGeometry relative="1" as="geometry" />
        </mxCell>
        <mxCell id="QtXWayGIyKTpw7mKhyBs-24" style="edgeStyle=none;curved=1;rounded=0;orthogonalLoop=1;jettySize=auto;html=1;fontSize=12;startSize=8;endSize=8;" edge="1" parent="1" source="QtXWayGIyKTpw7mKhyBs-1" target="QtXWayGIyKTpw7mKhyBs-12">
          <mxGeometry relative="1" as="geometry" />
        </mxCell>
        <mxCell id="QtXWayGIyKTpw7mKhyBs-25" style="edgeStyle=none;curved=1;rounded=0;orthogonalLoop=1;jettySize=auto;html=1;entryX=0;entryY=0.5;entryDx=0;entryDy=0;fontSize=12;startSize=8;endSize=8;" edge="1" parent="1" source="QtXWayGIyKTpw7mKhyBs-1" target="QtXWayGIyKTpw7mKhyBs-9">
          <mxGeometry relative="1" as="geometry" />
        </mxCell>
        <mxCell id="QtXWayGIyKTpw7mKhyBs-1" value="farmer" style="shape=umlActor;verticalLabelPosition=bottom;verticalAlign=top;html=1;outlineConnect=0;" vertex="1" parent="1">
          <mxGeometry x="-28" y="212" width="26" height="60" as="geometry" />
        </mxCell>
        <mxCell id="QtXWayGIyKTpw7mKhyBs-2" value="register account" style="ellipse;whiteSpace=wrap;html=1;" vertex="1" parent="1">
          <mxGeometry x="149" y="-96" width="140" height="70" as="geometry" />
        </mxCell>
        <mxCell id="QtXWayGIyKTpw7mKhyBs-7" value="tracks product delivery status" style="ellipse;whiteSpace=wrap;html=1;" vertex="1" parent="1">
          <mxGeometry x="161" y="451" width="140" height="70" as="geometry" />
        </mxCell>
        <mxCell id="QtXWayGIyKTpw7mKhyBs-8" value="deletes a product" style="ellipse;whiteSpace=wrap;html=1;" vertex="1" parent="1">
          <mxGeometry x="155" y="113" width="140" height="70" as="geometry" />
        </mxCell>
        <mxCell id="QtXWayGIyKTpw7mKhyBs-9" value="connects with buyers" style="ellipse;whiteSpace=wrap;html=1;" vertex="1" parent="1">
          <mxGeometry x="161" y="372" width="140" height="70" as="geometry" />
        </mxCell>
        <mxCell id="QtXWayGIyKTpw7mKhyBs-10" value="updates a product" style="ellipse;whiteSpace=wrap;html=1;" vertex="1" parent="1">
          <mxGeometry x="155" y="202" width="140" height="70" as="geometry" />
        </mxCell>
        <mxCell id="QtXWayGIyKTpw7mKhyBs-12" value="views market prices" style="ellipse;whiteSpace=wrap;html=1;" vertex="1" parent="1">
          <mxGeometry x="159" y="293" width="140" height="70" as="geometry" />
        </mxCell>
        <mxCell id="QtXWayGIyKTpw7mKhyBs-13" value="adds product" style="ellipse;whiteSpace=wrap;html=1;" vertex="1" parent="1">
          <mxGeometry x="155" y="11" width="140" height="70" as="geometry" />
        </mxCell>
        <mxCell id="QtXWayGIyKTpw7mKhyBs-26" style="edgeStyle=none;curved=1;rounded=0;orthogonalLoop=1;jettySize=auto;html=1;entryX=0.048;entryY=0.29;entryDx=0;entryDy=0;entryPerimeter=0;fontSize=12;startSize=8;endSize=8;" edge="1" parent="1" source="QtXWayGIyKTpw7mKhyBs-1" target="QtXWayGIyKTpw7mKhyBs-7">
          <mxGeometry relative="1" as="geometry" />
        </mxCell>
        <mxCell id="QtXWayGIyKTpw7mKhyBs-33" style="edgeStyle=none;curved=1;rounded=0;orthogonalLoop=1;jettySize=auto;html=1;fontSize=12;startSize=8;endSize=8;" edge="1" parent="1" source="QtXWayGIyKTpw7mKhyBs-27" target="QtXWayGIyKTpw7mKhyBs-28">
          <mxGeometry relative="1" as="geometry" />
        </mxCell>
        <mxCell id="QtXWayGIyKTpw7mKhyBs-34" style="edgeStyle=none;curved=1;rounded=0;orthogonalLoop=1;jettySize=auto;html=1;fontSize=12;startSize=8;endSize=8;" edge="1" parent="1" source="QtXWayGIyKTpw7mKhyBs-27" target="QtXWayGIyKTpw7mKhyBs-32">
          <mxGeometry relative="1" as="geometry" />
        </mxCell>
        <mxCell id="QtXWayGIyKTpw7mKhyBs-35" style="edgeStyle=none;curved=1;rounded=0;orthogonalLoop=1;jettySize=auto;html=1;fontSize=12;startSize=8;endSize=8;" edge="1" parent="1" source="QtXWayGIyKTpw7mKhyBs-27" target="QtXWayGIyKTpw7mKhyBs-31">
          <mxGeometry relative="1" as="geometry" />
        </mxCell>
        <mxCell id="QtXWayGIyKTpw7mKhyBs-36" style="edgeStyle=none;curved=1;rounded=0;orthogonalLoop=1;jettySize=auto;html=1;fontSize=12;startSize=8;endSize=8;" edge="1" parent="1" source="QtXWayGIyKTpw7mKhyBs-27" target="QtXWayGIyKTpw7mKhyBs-29">
          <mxGeometry relative="1" as="geometry" />
        </mxCell>
        <mxCell id="QtXWayGIyKTpw7mKhyBs-27" value="buyer" style="shape=umlActor;verticalLabelPosition=bottom;verticalAlign=top;html=1;" vertex="1" parent="1">
          <mxGeometry x="433" y="225" width="30" height="60" as="geometry" />
        </mxCell>
        <mxCell id="QtXWayGIyKTpw7mKhyBs-28" value="place order" style="ellipse;whiteSpace=wrap;html=1;" vertex="1" parent="1">
          <mxGeometry x="543" y="236" width="140" height="70" as="geometry" />
        </mxCell>
        <mxCell id="QtXWayGIyKTpw7mKhyBs-29" value="search products" style="ellipse;whiteSpace=wrap;html=1;" vertex="1" parent="1">
          <mxGeometry x="532" y="153" width="140" height="70" as="geometry" />
        </mxCell>
        <mxCell id="QtXWayGIyKTpw7mKhyBs-30" value="registers account" style="ellipse;whiteSpace=wrap;html=1;" vertex="1" parent="1">
          <mxGeometry x="529" y="56" width="140" height="70" as="geometry" />
        </mxCell>
        <mxCell id="QtXWayGIyKTpw7mKhyBs-31" value="review product" style="ellipse;whiteSpace=wrap;html=1;" vertex="1" parent="1">
          <mxGeometry x="536" y="456" width="140" height="70" as="geometry" />
        </mxCell>
        <mxCell id="QtXWayGIyKTpw7mKhyBs-32" value="track order" style="ellipse;whiteSpace=wrap;html=1;" vertex="1" parent="1">
          <mxGeometry x="550" y="343" width="140" height="70" as="geometry" />
        </mxCell>
        <mxCell id="QtXWayGIyKTpw7mKhyBs-37" style="edgeStyle=none;curved=1;rounded=0;orthogonalLoop=1;jettySize=auto;html=1;entryX=0.044;entryY=0.79;entryDx=0;entryDy=0;entryPerimeter=0;fontSize=12;startSize=8;endSize=8;" edge="1" parent="1" source="QtXWayGIyKTpw7mKhyBs-27" target="QtXWayGIyKTpw7mKhyBs-30">
          <mxGeometry relative="1" as="geometry" />
        </mxCell>
      </root>
    </mxGraphModel>
  </diagram>
</mxfile>
